<svg xmlns="http://www.w3.org/2000/svg" xmlns:xlink="http://www.w3.org/1999/xlink" width="2000" zoomAndPan="magnify" viewBox="0 0 1500 1499.999933" height="2000" preserveAspectRatio="xMidYMid meet" version="1.0"><defs><g/><clipPath id="03c290008a"><path d="M 57.640625 490.246094 L 414.640625 490.246094 L 414.640625 847.246094 L 57.640625 847.246094 Z M 57.640625 490.246094 " clip-rule="nonzero"/></clipPath><clipPath id="5a72d0b482"><rect x="0" width="890" y="0" height="232"/></clipPath><clipPath id="b654a58605"><rect x="0" width="846" y="0" height="33"/></clipPath></defs><path fill="#ffffff" d="M 130.644531 760.0625 C 109.417969 735.585938 96.570312 703.644531 96.566406 668.707031 C 96.570312 647.925781 101.117188 628.207031 109.265625 610.484375 C 115.878906 596.109375 123.699219 591.109375 140.128906 591.109375 L 236.089844 591.109375 C 247.488281 591.109375 257.933594 595.851562 265.554688 603.476562 C 273.179688 611.097656 277.925781 621.542969 277.925781 632.941406 C 277.925781 644.34375 273.179688 654.789062 265.554688 662.410156 C 257.933594 670.03125 247.488281 674.777344 236.089844 674.777344 L 130.644531 674.777344 Z M 130.644531 760.0625 " fill-opacity="1" fill-rule="evenodd"/><path fill="#ffffff" d="M 272.042969 533.875 C 331.664062 549.738281 375.609375 604.097656 375.609375 668.707031 C 375.609375 745.75 313.132812 808.226562 236.089844 808.226562 C 221.515625 808.226562 207.464844 805.988281 194.253906 801.839844 L 194.253906 738.386719 L 236.089844 738.386719 C 265.046875 738.386719 291.421875 726.488281 310.53125 707.382812 C 329.636719 688.273438 341.535156 661.898438 341.535156 632.941406 C 341.535156 603.984375 329.636719 577.609375 310.53125 558.503906 C 299.738281 547.710938 286.628906 539.21875 272.042969 533.875 Z M 272.042969 533.875 " fill-opacity="1" fill-rule="evenodd"/><g clip-path="url(#03c290008a)"><path fill="#ffffff" d="M 236.089844 490.246094 C 285.359375 490.246094 329.96875 510.222656 362.265625 542.519531 C 394.558594 574.8125 414.539062 619.425781 414.539062 668.695312 C 414.539062 717.964844 394.558594 762.574219 362.265625 794.871094 C 329.96875 827.164062 285.359375 847.144531 236.089844 847.144531 C 186.820312 847.144531 142.207031 827.164062 109.914062 794.871094 C 77.617188 762.574219 57.640625 717.964844 57.640625 668.695312 C 57.640625 619.425781 77.617188 574.8125 109.914062 542.519531 C 142.207031 510.222656 186.820312 490.246094 236.089844 490.246094 Z M 351.914062 552.871094 C 322.269531 523.226562 281.316406 504.886719 236.089844 504.886719 C 190.863281 504.886719 149.910156 523.226562 120.265625 552.871094 C 90.621094 582.515625 72.28125 623.464844 72.28125 668.695312 C 72.28125 713.921875 90.621094 754.871094 120.265625 784.519531 C 149.910156 814.164062 190.863281 832.503906 236.089844 832.503906 C 281.316406 832.503906 322.269531 814.164062 351.914062 784.519531 C 381.558594 754.871094 399.898438 713.921875 399.898438 668.695312 C 399.898438 623.464844 381.558594 582.515625 351.914062 552.871094 Z M 351.914062 552.871094 " fill-opacity="1" fill-rule="nonzero"/></g><g transform="matrix(1, 0, 0, 1, 428, 551)"><g clip-path="url(#5a72d0b482)"><g fill="#ffffff" fill-opacity="1"><g transform="translate(3.773152, 188.44316)"><g><path d="M 63.609375 -72.0625 C 72.160156 -72.0625 78.3125 -74.097656 82.0625 -78.171875 C 85.820312 -82.253906 87.703125 -87.957031 87.703125 -95.28125 C 87.703125 -98.519531 87.21875 -101.460938 86.25 -104.109375 C 85.28125 -106.765625 83.804688 -109.046875 81.828125 -110.953125 C 79.847656 -112.867188 77.351562 -114.34375 74.34375 -115.375 C 71.332031 -116.414062 67.753906 -116.9375 63.609375 -116.9375 L 46.515625 -116.9375 L 46.515625 -72.0625 Z M 63.609375 -141.515625 C 73.585938 -141.515625 82.148438 -140.332031 89.296875 -137.96875 C 96.453125 -135.601562 102.34375 -132.347656 106.96875 -128.203125 C 111.601562 -124.054688 115.019531 -119.164062 117.21875 -113.53125 C 119.425781 -107.90625 120.53125 -101.820312 120.53125 -95.28125 C 120.53125 -88.21875 119.394531 -81.738281 117.125 -75.84375 C 114.863281 -69.957031 111.398438 -64.910156 106.734375 -60.703125 C 102.078125 -56.492188 96.171875 -53.207031 89.015625 -50.84375 C 81.859375 -48.476562 73.390625 -47.296875 63.609375 -47.296875 L 46.515625 -47.296875 L 46.515625 0 L 13.6875 0 L 13.6875 -141.515625 Z M 63.609375 -141.515625 "/></g></g></g><g fill="#ffffff" fill-opacity="1"><g transform="translate(116.414474, 188.44316)"><g><path d="M 59.734375 -74.984375 C 64.203125 -74.984375 68.003906 -75.546875 71.140625 -76.671875 C 74.285156 -77.804688 76.859375 -79.378906 78.859375 -81.390625 C 80.867188 -83.398438 82.328125 -85.75 83.234375 -88.4375 C 84.140625 -91.125 84.59375 -94.019531 84.59375 -97.125 C 84.59375 -103.34375 82.566406 -108.195312 78.515625 -111.6875 C 74.472656 -115.1875 68.210938 -116.9375 59.734375 -116.9375 L 46.515625 -116.9375 L 46.515625 -74.984375 Z M 129.46875 0 L 99.75 0 C 94.238281 0 90.285156 -2.070312 87.890625 -6.21875 L 64.390625 -47.296875 C 63.296875 -49.046875 62.066406 -50.320312 60.703125 -51.125 C 59.335938 -51.9375 57.394531 -52.34375 54.875 -52.34375 L 46.515625 -52.34375 L 46.515625 0 L 13.6875 0 L 13.6875 -141.515625 L 59.734375 -141.515625 C 69.960938 -141.515625 78.6875 -140.460938 85.90625 -138.359375 C 93.125 -136.253906 99.015625 -133.320312 103.578125 -129.5625 C 108.148438 -125.8125 111.46875 -121.375 113.53125 -116.25 C 115.601562 -111.132812 116.640625 -105.566406 116.640625 -99.546875 C 116.640625 -94.953125 116.023438 -90.613281 114.796875 -86.53125 C 113.566406 -82.457031 111.753906 -78.6875 109.359375 -75.21875 C 106.960938 -71.757812 104 -68.671875 100.46875 -65.953125 C 96.945312 -63.234375 92.882812 -61 88.28125 -59.25 C 90.414062 -58.144531 92.421875 -56.765625 94.296875 -55.109375 C 96.179688 -53.460938 97.867188 -51.507812 99.359375 -49.25 Z M 129.46875 0 "/></g></g></g><g fill="#ffffff" fill-opacity="1"><g transform="translate(233.231353, 188.44316)"><g><path d="M 152.578125 -70.796875 C 152.578125 -60.566406 150.8125 -51.050781 147.28125 -42.25 C 143.757812 -33.445312 138.789062 -25.789062 132.375 -19.28125 C 125.96875 -12.769531 118.25 -7.671875 109.21875 -3.984375 C 100.1875 -0.296875 90.164062 1.546875 79.15625 1.546875 C 68.144531 1.546875 58.109375 -0.296875 49.046875 -3.984375 C 39.984375 -7.671875 32.226562 -12.769531 25.78125 -19.28125 C 19.34375 -25.789062 14.359375 -33.445312 10.828125 -42.25 C 7.296875 -51.050781 5.53125 -60.566406 5.53125 -70.796875 C 5.53125 -81.035156 7.296875 -90.554688 10.828125 -99.359375 C 14.359375 -108.160156 19.34375 -115.800781 25.78125 -122.28125 C 32.226562 -128.757812 39.984375 -133.84375 49.046875 -137.53125 C 58.109375 -141.21875 68.144531 -143.0625 79.15625 -143.0625 C 90.164062 -143.0625 100.1875 -141.195312 109.21875 -137.46875 C 118.25 -133.75 125.96875 -128.648438 132.375 -122.171875 C 138.789062 -115.703125 143.757812 -108.0625 147.28125 -99.25 C 150.8125 -90.445312 152.578125 -80.960938 152.578125 -70.796875 Z M 118.984375 -70.796875 C 118.984375 -77.796875 118.078125 -84.09375 116.265625 -89.6875 C 114.453125 -95.289062 111.84375 -100.035156 108.4375 -103.921875 C 105.039062 -107.804688 100.878906 -110.785156 95.953125 -112.859375 C 91.035156 -114.929688 85.4375 -115.96875 79.15625 -115.96875 C 72.8125 -115.96875 67.160156 -114.929688 62.203125 -112.859375 C 57.253906 -110.785156 53.078125 -107.804688 49.671875 -103.921875 C 46.273438 -100.035156 43.671875 -95.289062 41.859375 -89.6875 C 40.046875 -84.09375 39.140625 -77.796875 39.140625 -70.796875 C 39.140625 -63.742188 40.046875 -57.414062 41.859375 -51.8125 C 43.671875 -46.21875 46.273438 -41.476562 49.671875 -37.59375 C 53.078125 -33.707031 57.253906 -30.742188 62.203125 -28.703125 C 67.160156 -26.660156 72.8125 -25.640625 79.15625 -25.640625 C 85.4375 -25.640625 91.035156 -26.660156 95.953125 -28.703125 C 100.878906 -30.742188 105.039062 -33.707031 108.4375 -37.59375 C 111.84375 -41.476562 114.453125 -46.21875 116.265625 -51.8125 C 118.078125 -57.414062 118.984375 -63.742188 118.984375 -70.796875 Z M 118.984375 -70.796875 "/></g></g></g><g fill="#ffffff" fill-opacity="1"><g transform="translate(380.53966, 188.44316)"><g><path d="M 81.6875 -73.328125 L 132 -73.328125 L 132 -13.59375 C 124.738281 -8.289062 117.015625 -4.441406 108.828125 -2.046875 C 100.640625 0.347656 92.078125 1.546875 83.140625 1.546875 C 71.484375 1.546875 60.878906 -0.28125 51.328125 -3.9375 C 41.773438 -7.59375 33.597656 -12.640625 26.796875 -19.078125 C 20.003906 -25.523438 14.757812 -33.164062 11.0625 -42 C 7.375 -50.84375 5.53125 -60.441406 5.53125 -70.796875 C 5.53125 -81.359375 7.28125 -91.054688 10.78125 -99.890625 C 14.28125 -108.734375 19.28125 -116.359375 25.78125 -122.765625 C 32.289062 -129.171875 40.160156 -134.15625 49.390625 -137.71875 C 58.617188 -141.28125 68.929688 -143.0625 80.328125 -143.0625 C 86.210938 -143.0625 91.742188 -142.578125 96.921875 -141.609375 C 102.109375 -140.640625 106.882812 -139.3125 111.25 -137.625 C 115.625 -135.9375 119.625 -133.925781 123.25 -131.59375 C 126.875 -129.269531 130.113281 -126.75 132.96875 -124.03125 L 123.453125 -109.5625 C 121.960938 -107.289062 120.035156 -105.894531 117.671875 -105.375 C 115.304688 -104.863281 112.765625 -105.445312 110.046875 -107.125 C 107.453125 -108.675781 105.003906 -110.019531 102.703125 -111.15625 C 100.410156 -112.289062 98.066406 -113.210938 95.671875 -113.921875 C 93.273438 -114.640625 90.75 -115.160156 88.09375 -115.484375 C 85.4375 -115.804688 82.457031 -115.96875 79.15625 -115.96875 C 73.007812 -115.96875 67.472656 -114.878906 62.546875 -112.703125 C 57.628906 -110.535156 53.4375 -107.476562 49.96875 -103.53125 C 46.507812 -99.582031 43.835938 -94.835938 41.953125 -89.296875 C 40.078125 -83.765625 39.140625 -77.597656 39.140625 -70.796875 C 39.140625 -63.285156 40.175781 -56.617188 42.25 -50.796875 C 44.320312 -44.972656 47.25 -40.050781 51.03125 -36.03125 C 54.820312 -32.019531 59.351562 -28.960938 64.625 -26.859375 C 69.90625 -24.753906 75.753906 -23.703125 82.171875 -23.703125 C 86.117188 -23.703125 89.691406 -24.085938 92.890625 -24.859375 C 96.097656 -25.640625 99.222656 -26.675781 102.265625 -27.96875 L 102.265625 -49.4375 L 88.28125 -49.4375 C 86.207031 -49.4375 84.585938 -49.984375 83.421875 -51.078125 C 82.265625 -52.179688 81.6875 -53.578125 81.6875 -55.265625 Z M 81.6875 -73.328125 "/></g></g></g><g fill="#ffffff" fill-opacity="1"><g transform="translate(509.980363, 188.44316)"><g><path d="M 46.71875 -116.265625 L 46.71875 -83.234375 L 91.203125 -83.234375 L 91.203125 -58.953125 L 46.71875 -58.953125 L 46.71875 -25.25 L 104.796875 -25.25 L 104.796875 0 L 13.6875 0 L 13.6875 -141.515625 L 104.796875 -141.515625 L 104.796875 -116.265625 Z M 46.71875 -116.265625 "/></g></g></g><g fill="#ffffff" fill-opacity="1"><g transform="translate(610.38629, 188.44316)"><g><path d="M 137.234375 -141.515625 L 137.234375 0 L 120.140625 0 C 117.617188 0 115.5 -0.398438 113.78125 -1.203125 C 112.0625 -2.015625 110.363281 -3.425781 108.6875 -5.4375 L 41.953125 -89.84375 C 42.210938 -87.3125 42.390625 -84.863281 42.484375 -82.5 C 42.585938 -80.144531 42.640625 -77.929688 42.640625 -75.859375 L 42.640625 0 L 13.6875 0 L 13.6875 -141.515625 L 30.984375 -141.515625 C 32.410156 -141.515625 33.609375 -141.445312 34.578125 -141.3125 C 35.546875 -141.1875 36.414062 -140.941406 37.1875 -140.578125 C 37.96875 -140.222656 38.710938 -139.722656 39.421875 -139.078125 C 40.140625 -138.429688 40.953125 -137.554688 41.859375 -136.453125 L 109.171875 -51.46875 C 108.847656 -54.195312 108.617188 -56.835938 108.484375 -59.390625 C 108.359375 -61.953125 108.296875 -64.363281 108.296875 -66.625 L 108.296875 -141.515625 Z M 137.234375 -141.515625 "/></g></g></g><g fill="#ffffff" fill-opacity="1"><g transform="translate(750.411615, 188.44316)"><g/></g></g><g fill="#ffffff" fill-opacity="1"><g transform="translate(784.396832, 188.44316)"><g><path d="M 43.125 -91.6875 C 45.78125 -92.207031 48.335938 -92.5625 50.796875 -92.75 C 53.253906 -92.945312 55.648438 -93.046875 57.984375 -93.046875 C 65.429688 -93.046875 72.003906 -91.910156 77.703125 -89.640625 C 83.398438 -87.378906 88.191406 -84.289062 92.078125 -80.375 C 95.960938 -76.457031 98.890625 -71.859375 100.859375 -66.578125 C 102.835938 -61.296875 103.828125 -55.644531 103.828125 -49.625 C 103.828125 -42.050781 102.484375 -35.140625 99.796875 -28.890625 C 97.109375 -22.640625 93.367188 -17.25 88.578125 -12.71875 C 83.785156 -8.1875 78.070312 -4.675781 71.4375 -2.1875 C 64.800781 0.300781 57.53125 1.546875 49.625 1.546875 C 45.03125 1.546875 40.644531 1.0625 36.46875 0.09375 C 32.289062 -0.875 28.375 -2.179688 24.71875 -3.828125 C 21.0625 -5.484375 17.675781 -7.394531 14.5625 -9.5625 C 11.457031 -11.738281 8.644531 -14.054688 6.125 -16.515625 L 15.4375 -28.9375 C 16.414062 -30.238281 17.550781 -31.226562 18.84375 -31.90625 C 20.132812 -32.582031 21.523438 -32.921875 23.015625 -32.921875 C 24.960938 -32.921875 26.789062 -32.382812 28.5 -31.3125 C 30.21875 -30.25 32.097656 -29.085938 34.140625 -27.828125 C 36.179688 -26.566406 38.5625 -25.414062 41.28125 -24.375 C 44 -23.34375 47.363281 -22.828125 51.375 -22.828125 C 55.394531 -22.828125 58.828125 -23.488281 61.671875 -24.8125 C 64.523438 -26.144531 66.84375 -27.957031 68.625 -30.25 C 70.40625 -32.550781 71.695312 -35.238281 72.5 -38.3125 C 73.3125 -41.382812 73.71875 -44.671875 73.71875 -48.171875 C 73.71875 -55.035156 71.773438 -60.265625 67.890625 -63.859375 C 64.003906 -67.453125 58.5 -69.25 51.375 -69.25 C 45.03125 -69.25 38.816406 -68.050781 32.734375 -65.65625 L 14.078125 -70.703125 L 26.125 -141.515625 L 98.578125 -141.515625 L 98.578125 -129.078125 C 98.578125 -127.003906 98.253906 -125.125 97.609375 -123.4375 C 96.960938 -121.757812 95.941406 -120.289062 94.546875 -119.03125 C 93.160156 -117.769531 91.332031 -116.796875 89.0625 -116.109375 C 86.800781 -115.429688 84.082031 -115.09375 80.90625 -115.09375 L 47.109375 -115.09375 Z M 43.125 -91.6875 "/></g></g></g></g></g><g transform="matrix(1, 0, 0, 1, 466, 768)"><g clip-path="url(#b654a58605)"><g fill="#ffffff" fill-opacity="1"><g transform="translate(0.983199, 26.764888)"><g><path d="M 9.484375 -7.515625 L 9.484375 0 L 6.9375 0 L 6.9375 -7.515625 L 0.03125 -18.859375 L 2.265625 -18.859375 C 2.492188 -18.859375 2.671875 -18.800781 2.796875 -18.6875 C 2.929688 -18.582031 3.046875 -18.441406 3.140625 -18.265625 L 7.46875 -10.9375 C 7.625 -10.632812 7.765625 -10.347656 7.890625 -10.078125 C 8.023438 -9.804688 8.140625 -9.535156 8.234375 -9.265625 C 8.335938 -9.535156 8.445312 -9.804688 8.5625 -10.078125 C 8.6875 -10.347656 8.828125 -10.632812 8.984375 -10.9375 L 13.28125 -18.265625 C 13.363281 -18.421875 13.472656 -18.554688 13.609375 -18.671875 C 13.753906 -18.796875 13.9375 -18.859375 14.15625 -18.859375 L 16.40625 -18.859375 Z M 9.484375 -7.515625 "/></g></g></g><g fill="#ffffff" fill-opacity="1"><g transform="translate(38.47484, 26.764888)"><g><path d="M 19.84375 -9.421875 C 19.84375 -8.015625 19.617188 -6.71875 19.171875 -5.53125 C 18.722656 -4.351562 18.085938 -3.335938 17.265625 -2.484375 C 16.453125 -1.640625 15.472656 -0.976562 14.328125 -0.5 C 13.179688 -0.03125 11.914062 0.203125 10.53125 0.203125 C 9.144531 0.203125 7.878906 -0.03125 6.734375 -0.5 C 5.597656 -0.976562 4.617188 -1.640625 3.796875 -2.484375 C 2.984375 -3.335938 2.351562 -4.351562 1.90625 -5.53125 C 1.457031 -6.71875 1.234375 -8.015625 1.234375 -9.421875 C 1.234375 -10.835938 1.457031 -12.132812 1.90625 -13.3125 C 2.351562 -14.5 2.984375 -15.519531 3.796875 -16.375 C 4.617188 -17.226562 5.597656 -17.890625 6.734375 -18.359375 C 7.878906 -18.835938 9.144531 -19.078125 10.53125 -19.078125 C 11.914062 -19.078125 13.179688 -18.835938 14.328125 -18.359375 C 15.472656 -17.890625 16.453125 -17.226562 17.265625 -16.375 C 18.085938 -15.519531 18.722656 -14.5 19.171875 -13.3125 C 19.617188 -12.132812 19.84375 -10.835938 19.84375 -9.421875 Z M 17.21875 -9.421875 C 17.21875 -10.578125 17.054688 -11.613281 16.734375 -12.53125 C 16.421875 -13.457031 15.972656 -14.238281 15.390625 -14.875 C 14.816406 -15.519531 14.117188 -16.007812 13.296875 -16.34375 C 12.472656 -16.6875 11.550781 -16.859375 10.53125 -16.859375 C 9.519531 -16.859375 8.601562 -16.6875 7.78125 -16.34375 C 6.957031 -16.007812 6.253906 -15.519531 5.671875 -14.875 C 5.085938 -14.238281 4.632812 -13.457031 4.3125 -12.53125 C 4 -11.613281 3.84375 -10.578125 3.84375 -9.421875 C 3.84375 -8.265625 4 -7.226562 4.3125 -6.3125 C 4.632812 -5.394531 5.085938 -4.617188 5.671875 -3.984375 C 6.253906 -3.347656 6.957031 -2.859375 7.78125 -2.515625 C 8.601562 -2.179688 9.519531 -2.015625 10.53125 -2.015625 C 11.550781 -2.015625 12.472656 -2.179688 13.296875 -2.515625 C 14.117188 -2.859375 14.816406 -3.347656 15.390625 -3.984375 C 15.972656 -4.617188 16.421875 -5.394531 16.734375 -6.3125 C 17.054688 -7.226562 17.21875 -8.265625 17.21875 -9.421875 Z M 17.21875 -9.421875 "/></g></g></g><g fill="#ffffff" fill-opacity="1"><g transform="translate(80.612307, 26.764888)"><g><path d="M 9.6875 -2.03125 C 10.46875 -2.03125 11.164062 -2.160156 11.78125 -2.421875 C 12.394531 -2.679688 12.914062 -3.046875 13.34375 -3.515625 C 13.769531 -3.992188 14.09375 -4.5625 14.3125 -5.21875 C 14.539062 -5.882812 14.65625 -6.609375 14.65625 -7.390625 L 14.65625 -18.859375 L 17.1875 -18.859375 L 17.1875 -7.390625 C 17.1875 -6.304688 17.015625 -5.296875 16.671875 -4.359375 C 16.328125 -3.429688 15.832031 -2.628906 15.1875 -1.953125 C 14.539062 -1.273438 13.75 -0.742188 12.8125 -0.359375 C 11.882812 0.0234375 10.84375 0.21875 9.6875 0.21875 C 8.53125 0.21875 7.484375 0.0234375 6.546875 -0.359375 C 5.617188 -0.742188 4.832031 -1.273438 4.1875 -1.953125 C 3.539062 -2.628906 3.039062 -3.429688 2.6875 -4.359375 C 2.34375 -5.296875 2.171875 -6.304688 2.171875 -7.390625 L 2.171875 -18.859375 L 4.71875 -18.859375 L 4.71875 -7.40625 C 4.71875 -6.625 4.828125 -5.898438 5.046875 -5.234375 C 5.273438 -4.578125 5.597656 -4.007812 6.015625 -3.53125 C 6.441406 -3.0625 6.960938 -2.691406 7.578125 -2.421875 C 8.203125 -2.160156 8.90625 -2.03125 9.6875 -2.03125 Z M 9.6875 -2.03125 "/></g></g></g><g fill="#ffffff" fill-opacity="1"><g transform="translate(121.038842, 26.764888)"><g><path d="M 7.640625 -9.734375 C 8.367188 -9.734375 9.015625 -9.820312 9.578125 -10 C 10.148438 -10.175781 10.625 -10.425781 11 -10.75 C 11.382812 -11.082031 11.671875 -11.476562 11.859375 -11.9375 C 12.054688 -12.394531 12.15625 -12.898438 12.15625 -13.453125 C 12.15625 -14.578125 11.785156 -15.421875 11.046875 -15.984375 C 10.316406 -16.554688 9.210938 -16.84375 7.734375 -16.84375 L 4.953125 -16.84375 L 4.953125 -9.734375 Z M 16.34375 0 L 14.078125 0 C 13.617188 0 13.28125 -0.179688 13.0625 -0.546875 L 8.15625 -7.28125 C 8.007812 -7.488281 7.847656 -7.640625 7.671875 -7.734375 C 7.503906 -7.828125 7.242188 -7.875 6.890625 -7.875 L 4.953125 -7.875 L 4.953125 0 L 2.40625 0 L 2.40625 -18.859375 L 7.734375 -18.859375 C 8.929688 -18.859375 9.960938 -18.738281 10.828125 -18.5 C 11.703125 -18.257812 12.421875 -17.910156 12.984375 -17.453125 C 13.546875 -16.992188 13.960938 -16.441406 14.234375 -15.796875 C 14.515625 -15.148438 14.65625 -14.429688 14.65625 -13.640625 C 14.65625 -12.972656 14.546875 -12.347656 14.328125 -11.765625 C 14.117188 -11.191406 13.816406 -10.671875 13.421875 -10.203125 C 13.023438 -9.742188 12.535156 -9.351562 11.953125 -9.03125 C 11.378906 -8.707031 10.726562 -8.460938 10 -8.296875 C 10.320312 -8.109375 10.601562 -7.835938 10.84375 -7.484375 Z M 16.34375 0 "/></g></g></g><g fill="#ffffff" fill-opacity="1"><g transform="translate(158.596282, 26.764888)"><g/></g></g><g fill="#ffffff" fill-opacity="1"><g transform="translate(186.401429, 26.764888)"><g><path d="M 4.96875 0 L 2.40625 0 L 2.40625 -18.859375 L 4.96875 -18.859375 Z M 4.96875 0 "/></g></g></g><g fill="#ffffff" fill-opacity="1"><g transform="translate(214.838305, 26.764888)"><g><path d="M 18.765625 -9.421875 C 18.765625 -8.015625 18.539062 -6.726562 18.09375 -5.5625 C 17.644531 -4.40625 17.007812 -3.414062 16.1875 -2.59375 C 15.375 -1.769531 14.394531 -1.128906 13.25 -0.671875 C 12.101562 -0.222656 10.835938 0 9.453125 0 L 2.40625 0 L 2.40625 -18.859375 L 9.453125 -18.859375 C 10.835938 -18.859375 12.101562 -18.632812 13.25 -18.1875 C 14.394531 -17.738281 15.375 -17.097656 16.1875 -16.265625 C 17.007812 -15.429688 17.644531 -14.4375 18.09375 -13.28125 C 18.539062 -12.125 18.765625 -10.835938 18.765625 -9.421875 Z M 16.140625 -9.421875 C 16.140625 -10.578125 15.976562 -11.613281 15.65625 -12.53125 C 15.34375 -13.445312 14.894531 -14.21875 14.3125 -14.84375 C 13.738281 -15.476562 13.039062 -15.960938 12.21875 -16.296875 C 11.394531 -16.628906 10.472656 -16.796875 9.453125 -16.796875 L 4.96875 -16.796875 L 4.96875 -2.0625 L 9.453125 -2.0625 C 10.472656 -2.0625 11.394531 -2.226562 12.21875 -2.5625 C 13.039062 -2.894531 13.738281 -3.375 14.3125 -4 C 14.894531 -4.632812 15.34375 -5.40625 15.65625 -6.3125 C 15.976562 -7.226562 16.140625 -8.265625 16.140625 -9.421875 Z M 16.140625 -9.421875 "/></g></g></g><g fill="#ffffff" fill-opacity="1"><g transform="translate(255.922895, 26.764888)"><g><path d="M 14.046875 -2.078125 L 14.03125 0 L 2.40625 0 L 2.40625 -18.859375 L 14.03125 -18.859375 L 14.03125 -16.78125 L 4.96875 -16.78125 L 4.96875 -10.515625 L 12.3125 -10.515625 L 12.3125 -8.515625 L 4.96875 -8.515625 L 4.96875 -2.078125 Z M 14.046875 -2.078125 "/></g></g></g><g fill="#ffffff" fill-opacity="1"><g transform="translate(292.190562, 26.764888)"><g><path d="M 12.421875 -7 L 9.46875 -14.671875 C 9.375 -14.898438 9.28125 -15.164062 9.1875 -15.46875 C 9.09375 -15.769531 9 -16.09375 8.90625 -16.4375 C 8.726562 -15.726562 8.539062 -15.140625 8.34375 -14.671875 L 5.390625 -7 Z M 17.75 0 L 15.765625 0 C 15.535156 0 15.347656 -0.0546875 15.203125 -0.171875 C 15.066406 -0.285156 14.96875 -0.429688 14.90625 -0.609375 L 13.140625 -5.15625 L 4.671875 -5.15625 L 2.90625 -0.609375 C 2.851562 -0.453125 2.75 -0.3125 2.59375 -0.1875 C 2.445312 -0.0625 2.265625 0 2.046875 0 L 0.078125 0 L 7.625 -18.859375 L 10.203125 -18.859375 Z M 17.75 0 "/></g></g></g><g fill="#ffffff" fill-opacity="1"><g transform="translate(331.077264, 26.764888)"><g/></g></g><g fill="#ffffff" fill-opacity="1"><g transform="translate(358.88241, 26.764888)"><g><path d="M 19.84375 -9.421875 C 19.84375 -8.015625 19.617188 -6.71875 19.171875 -5.53125 C 18.722656 -4.351562 18.085938 -3.335938 17.265625 -2.484375 C 16.453125 -1.640625 15.472656 -0.976562 14.328125 -0.5 C 13.179688 -0.03125 11.914062 0.203125 10.53125 0.203125 C 9.144531 0.203125 7.878906 -0.03125 6.734375 -0.5 C 5.597656 -0.976562 4.617188 -1.640625 3.796875 -2.484375 C 2.984375 -3.335938 2.351562 -4.351562 1.90625 -5.53125 C 1.457031 -6.71875 1.234375 -8.015625 1.234375 -9.421875 C 1.234375 -10.835938 1.457031 -12.132812 1.90625 -13.3125 C 2.351562 -14.5 2.984375 -15.519531 3.796875 -16.375 C 4.617188 -17.226562 5.597656 -17.890625 6.734375 -18.359375 C 7.878906 -18.835938 9.144531 -19.078125 10.53125 -19.078125 C 11.914062 -19.078125 13.179688 -18.835938 14.328125 -18.359375 C 15.472656 -17.890625 16.453125 -17.226562 17.265625 -16.375 C 18.085938 -15.519531 18.722656 -14.5 19.171875 -13.3125 C 19.617188 -12.132812 19.84375 -10.835938 19.84375 -9.421875 Z M 17.21875 -9.421875 C 17.21875 -10.578125 17.054688 -11.613281 16.734375 -12.53125 C 16.421875 -13.457031 15.972656 -14.238281 15.390625 -14.875 C 14.816406 -15.519531 14.117188 -16.007812 13.296875 -16.34375 C 12.472656 -16.6875 11.550781 -16.859375 10.53125 -16.859375 C 9.519531 -16.859375 8.601562 -16.6875 7.78125 -16.34375 C 6.957031 -16.007812 6.253906 -15.519531 5.671875 -14.875 C 5.085938 -14.238281 4.632812 -13.457031 4.3125 -12.53125 C 4 -11.613281 3.84375 -10.578125 3.84375 -9.421875 C 3.84375 -8.265625 4 -7.226562 4.3125 -6.3125 C 4.632812 -5.394531 5.085938 -4.617188 5.671875 -3.984375 C 6.253906 -3.347656 6.957031 -2.859375 7.78125 -2.515625 C 8.601562 -2.179688 9.519531 -2.015625 10.53125 -2.015625 C 11.550781 -2.015625 12.472656 -2.179688 13.296875 -2.515625 C 14.117188 -2.859375 14.816406 -3.347656 15.390625 -3.984375 C 15.972656 -4.617188 16.421875 -5.394531 16.734375 -6.3125 C 17.054688 -7.226562 17.21875 -8.265625 17.21875 -9.421875 Z M 17.21875 -9.421875 "/></g></g></g><g fill="#ffffff" fill-opacity="1"><g transform="translate(401.019863, 26.764888)"><g><path d="M 9.6875 -2.03125 C 10.46875 -2.03125 11.164062 -2.160156 11.78125 -2.421875 C 12.394531 -2.679688 12.914062 -3.046875 13.34375 -3.515625 C 13.769531 -3.992188 14.09375 -4.5625 14.3125 -5.21875 C 14.539062 -5.882812 14.65625 -6.609375 14.65625 -7.390625 L 14.65625 -18.859375 L 17.1875 -18.859375 L 17.1875 -7.390625 C 17.1875 -6.304688 17.015625 -5.296875 16.671875 -4.359375 C 16.328125 -3.429688 15.832031 -2.628906 15.1875 -1.953125 C 14.539062 -1.273438 13.75 -0.742188 12.8125 -0.359375 C 11.882812 0.0234375 10.84375 0.21875 9.6875 0.21875 C 8.53125 0.21875 7.484375 0.0234375 6.546875 -0.359375 C 5.617188 -0.742188 4.832031 -1.273438 4.1875 -1.953125 C 3.539062 -2.628906 3.039062 -3.429688 2.6875 -4.359375 C 2.34375 -5.296875 2.171875 -6.304688 2.171875 -7.390625 L 2.171875 -18.859375 L 4.71875 -18.859375 L 4.71875 -7.40625 C 4.71875 -6.625 4.828125 -5.898438 5.046875 -5.234375 C 5.273438 -4.578125 5.597656 -4.007812 6.015625 -3.53125 C 6.441406 -3.0625 6.960938 -2.691406 7.578125 -2.421875 C 8.203125 -2.160156 8.90625 -2.03125 9.6875 -2.03125 Z M 9.6875 -2.03125 "/></g></g></g><g fill="#ffffff" fill-opacity="1"><g transform="translate(441.446411, 26.764888)"><g><path d="M 7.640625 -9.734375 C 8.367188 -9.734375 9.015625 -9.820312 9.578125 -10 C 10.148438 -10.175781 10.625 -10.425781 11 -10.75 C 11.382812 -11.082031 11.671875 -11.476562 11.859375 -11.9375 C 12.054688 -12.394531 12.15625 -12.898438 12.15625 -13.453125 C 12.15625 -14.578125 11.785156 -15.421875 11.046875 -15.984375 C 10.316406 -16.554688 9.210938 -16.84375 7.734375 -16.84375 L 4.953125 -16.84375 L 4.953125 -9.734375 Z M 16.34375 0 L 14.078125 0 C 13.617188 0 13.28125 -0.179688 13.0625 -0.546875 L 8.15625 -7.28125 C 8.007812 -7.488281 7.847656 -7.640625 7.671875 -7.734375 C 7.503906 -7.828125 7.242188 -7.875 6.890625 -7.875 L 4.953125 -7.875 L 4.953125 0 L 2.40625 0 L 2.40625 -18.859375 L 7.734375 -18.859375 C 8.929688 -18.859375 9.960938 -18.738281 10.828125 -18.5 C 11.703125 -18.257812 12.421875 -17.910156 12.984375 -17.453125 C 13.546875 -16.992188 13.960938 -16.441406 14.234375 -15.796875 C 14.515625 -15.148438 14.65625 -14.429688 14.65625 -13.640625 C 14.65625 -12.972656 14.546875 -12.347656 14.328125 -11.765625 C 14.117188 -11.191406 13.816406 -10.671875 13.421875 -10.203125 C 13.023438 -9.742188 12.535156 -9.351562 11.953125 -9.03125 C 11.378906 -8.707031 10.726562 -8.460938 10 -8.296875 C 10.320312 -8.109375 10.601562 -7.835938 10.84375 -7.484375 Z M 16.34375 0 "/></g></g></g><g fill="#ffffff" fill-opacity="1"><g transform="translate(479.003864, 26.764888)"><g/></g></g><g fill="#ffffff" fill-opacity="1"><g transform="translate(506.808986, 26.764888)"><g><path d="M 14.046875 -2.078125 L 14.03125 0 L 2.40625 0 L 2.40625 -18.859375 L 14.03125 -18.859375 L 14.03125 -16.78125 L 4.96875 -16.78125 L 4.96875 -10.515625 L 12.3125 -10.515625 L 12.3125 -8.515625 L 4.96875 -8.515625 L 4.96875 -2.078125 Z M 14.046875 -2.078125 "/></g></g></g><g fill="#ffffff" fill-opacity="1"><g transform="translate(543.076678, 26.764888)"><g><path d="M 16.796875 0 L 14.265625 0 C 14.078125 0 13.925781 -0.046875 13.8125 -0.140625 C 13.707031 -0.242188 13.617188 -0.359375 13.546875 -0.484375 L 8.484375 -8.40625 C 8.421875 -8.195312 8.34375 -8.019531 8.25 -7.875 L 3.328125 -0.484375 C 3.242188 -0.359375 3.148438 -0.242188 3.046875 -0.140625 C 2.941406 -0.046875 2.800781 0 2.625 0 L 0.265625 0 L 6.75 -9.6875 L 0.53125 -18.859375 L 3.0625 -18.859375 C 3.25 -18.859375 3.382812 -18.828125 3.46875 -18.765625 C 3.5625 -18.710938 3.644531 -18.628906 3.71875 -18.515625 L 8.640625 -10.953125 C 8.703125 -11.140625 8.789062 -11.34375 8.90625 -11.5625 L 13.5625 -18.453125 C 13.632812 -18.578125 13.71875 -18.675781 13.8125 -18.75 C 13.90625 -18.820312 14.019531 -18.859375 14.15625 -18.859375 L 16.59375 -18.859375 L 10.328125 -9.8125 Z M 16.796875 0 "/></g></g></g><g fill="#ffffff" fill-opacity="1"><g transform="translate(581.226363, 26.764888)"><g><path d="M 14.046875 -2.078125 L 14.03125 0 L 2.40625 0 L 2.40625 -18.859375 L 14.03125 -18.859375 L 14.03125 -16.78125 L 4.96875 -16.78125 L 4.96875 -10.515625 L 12.3125 -10.515625 L 12.3125 -8.515625 L 4.96875 -8.515625 L 4.96875 -2.078125 Z M 14.046875 -2.078125 "/></g></g></g><g fill="#ffffff" fill-opacity="1"><g transform="translate(617.494005, 26.764888)"><g><path d="M 15.65625 -3.890625 C 15.789062 -3.890625 15.910156 -3.832031 16.015625 -3.71875 L 17.03125 -2.625 C 16.257812 -1.738281 15.320312 -1.046875 14.21875 -0.546875 C 13.125 -0.046875 11.796875 0.203125 10.234375 0.203125 C 8.878906 0.203125 7.648438 -0.03125 6.546875 -0.5 C 5.441406 -0.96875 4.5 -1.625 3.71875 -2.46875 C 2.9375 -3.3125 2.328125 -4.328125 1.890625 -5.515625 C 1.460938 -6.703125 1.25 -8.003906 1.25 -9.421875 C 1.25 -10.847656 1.472656 -12.148438 1.921875 -13.328125 C 2.367188 -14.515625 3 -15.535156 3.8125 -16.390625 C 4.625 -17.242188 5.59375 -17.90625 6.71875 -18.375 C 7.851562 -18.84375 9.109375 -19.078125 10.484375 -19.078125 C 11.828125 -19.078125 13.007812 -18.859375 14.03125 -18.421875 C 15.0625 -17.992188 15.96875 -17.410156 16.75 -16.671875 L 15.90625 -15.5 C 15.851562 -15.414062 15.785156 -15.34375 15.703125 -15.28125 C 15.617188 -15.226562 15.503906 -15.203125 15.359375 -15.203125 C 15.203125 -15.203125 15.007812 -15.285156 14.78125 -15.453125 C 14.550781 -15.628906 14.25 -15.820312 13.875 -16.03125 C 13.507812 -16.238281 13.050781 -16.425781 12.5 -16.59375 C 11.945312 -16.769531 11.269531 -16.859375 10.46875 -16.859375 C 9.488281 -16.859375 8.59375 -16.6875 7.78125 -16.34375 C 6.976562 -16.007812 6.285156 -15.519531 5.703125 -14.875 C 5.117188 -14.238281 4.664062 -13.457031 4.34375 -12.53125 C 4.019531 -11.613281 3.859375 -10.578125 3.859375 -9.421875 C 3.859375 -8.242188 4.023438 -7.191406 4.359375 -6.265625 C 4.703125 -5.347656 5.164062 -4.570312 5.75 -3.9375 C 6.332031 -3.300781 7.019531 -2.816406 7.8125 -2.484375 C 8.601562 -2.148438 9.460938 -1.984375 10.390625 -1.984375 C 10.953125 -1.984375 11.457031 -2.015625 11.90625 -2.078125 C 12.351562 -2.148438 12.769531 -2.253906 13.15625 -2.390625 C 13.539062 -2.535156 13.894531 -2.710938 14.21875 -2.921875 C 14.550781 -3.140625 14.878906 -3.398438 15.203125 -3.703125 C 15.347656 -3.828125 15.5 -3.890625 15.65625 -3.890625 Z M 15.65625 -3.890625 "/></g></g></g><g fill="#ffffff" fill-opacity="1"><g transform="translate(656.143809, 26.764888)"><g><path d="M 9.6875 -2.03125 C 10.46875 -2.03125 11.164062 -2.160156 11.78125 -2.421875 C 12.394531 -2.679688 12.914062 -3.046875 13.34375 -3.515625 C 13.769531 -3.992188 14.09375 -4.5625 14.3125 -5.21875 C 14.539062 -5.882812 14.65625 -6.609375 14.65625 -7.390625 L 14.65625 -18.859375 L 17.1875 -18.859375 L 17.1875 -7.390625 C 17.1875 -6.304688 17.015625 -5.296875 16.671875 -4.359375 C 16.328125 -3.429688 15.832031 -2.628906 15.1875 -1.953125 C 14.539062 -1.273438 13.75 -0.742188 12.8125 -0.359375 C 11.882812 0.0234375 10.84375 0.21875 9.6875 0.21875 C 8.53125 0.21875 7.484375 0.0234375 6.546875 -0.359375 C 5.617188 -0.742188 4.832031 -1.273438 4.1875 -1.953125 C 3.539062 -2.628906 3.039062 -3.429688 2.6875 -4.359375 C 2.34375 -5.296875 2.171875 -6.304688 2.171875 -7.390625 L 2.171875 -18.859375 L 4.71875 -18.859375 L 4.71875 -7.40625 C 4.71875 -6.625 4.828125 -5.898438 5.046875 -5.234375 C 5.273438 -4.578125 5.597656 -4.007812 6.015625 -3.53125 C 6.441406 -3.0625 6.960938 -2.691406 7.578125 -2.421875 C 8.203125 -2.160156 8.90625 -2.03125 9.6875 -2.03125 Z M 9.6875 -2.03125 "/></g></g></g><g fill="#ffffff" fill-opacity="1"><g transform="translate(696.570356, 26.764888)"><g><path d="M 15.171875 -16.71875 L 9.0625 -16.71875 L 9.0625 0 L 6.515625 0 L 6.515625 -16.71875 L 0.390625 -16.71875 L 0.390625 -18.859375 L 15.171875 -18.859375 Z M 15.171875 -16.71875 "/></g></g></g><g fill="#ffffff" fill-opacity="1"><g transform="translate(733.18022, 26.764888)"><g><path d="M 4.96875 0 L 2.40625 0 L 2.40625 -18.859375 L 4.96875 -18.859375 Z M 4.96875 0 "/></g></g></g><g fill="#ffffff" fill-opacity="1"><g transform="translate(761.617084, 26.764888)"><g><path d="M 19.84375 -9.421875 C 19.84375 -8.015625 19.617188 -6.71875 19.171875 -5.53125 C 18.722656 -4.351562 18.085938 -3.335938 17.265625 -2.484375 C 16.453125 -1.640625 15.472656 -0.976562 14.328125 -0.5 C 13.179688 -0.03125 11.914062 0.203125 10.53125 0.203125 C 9.144531 0.203125 7.878906 -0.03125 6.734375 -0.5 C 5.597656 -0.976562 4.617188 -1.640625 3.796875 -2.484375 C 2.984375 -3.335938 2.351562 -4.351562 1.90625 -5.53125 C 1.457031 -6.71875 1.234375 -8.015625 1.234375 -9.421875 C 1.234375 -10.835938 1.457031 -12.132812 1.90625 -13.3125 C 2.351562 -14.5 2.984375 -15.519531 3.796875 -16.375 C 4.617188 -17.226562 5.597656 -17.890625 6.734375 -18.359375 C 7.878906 -18.835938 9.144531 -19.078125 10.53125 -19.078125 C 11.914062 -19.078125 13.179688 -18.835938 14.328125 -18.359375 C 15.472656 -17.890625 16.453125 -17.226562 17.265625 -16.375 C 18.085938 -15.519531 18.722656 -14.5 19.171875 -13.3125 C 19.617188 -12.132812 19.84375 -10.835938 19.84375 -9.421875 Z M 17.21875 -9.421875 C 17.21875 -10.578125 17.054688 -11.613281 16.734375 -12.53125 C 16.421875 -13.457031 15.972656 -14.238281 15.390625 -14.875 C 14.816406 -15.519531 14.117188 -16.007812 13.296875 -16.34375 C 12.472656 -16.6875 11.550781 -16.859375 10.53125 -16.859375 C 9.519531 -16.859375 8.601562 -16.6875 7.78125 -16.34375 C 6.957031 -16.007812 6.253906 -15.519531 5.671875 -14.875 C 5.085938 -14.238281 4.632812 -13.457031 4.3125 -12.53125 C 4 -11.613281 3.84375 -10.578125 3.84375 -9.421875 C 3.84375 -8.265625 4 -7.226562 4.3125 -6.3125 C 4.632812 -5.394531 5.085938 -4.617188 5.671875 -3.984375 C 6.253906 -3.347656 6.957031 -2.859375 7.78125 -2.515625 C 8.601562 -2.179688 9.519531 -2.015625 10.53125 -2.015625 C 11.550781 -2.015625 12.472656 -2.179688 13.296875 -2.515625 C 14.117188 -2.859375 14.816406 -3.347656 15.390625 -3.984375 C 15.972656 -4.617188 16.421875 -5.394531 16.734375 -6.3125 C 17.054688 -7.226562 17.21875 -8.265625 17.21875 -9.421875 Z M 17.21875 -9.421875 "/></g></g></g><g fill="#ffffff" fill-opacity="1"><g transform="translate(803.754538, 26.764888)"><g><path d="M 17.6875 -18.859375 L 17.6875 0 L 16.421875 0 C 16.210938 0 16.039062 -0.03125 15.90625 -0.09375 C 15.769531 -0.164062 15.632812 -0.285156 15.5 -0.453125 L 4.59375 -14.671875 C 4.613281 -14.453125 4.625 -14.238281 4.625 -14.03125 C 4.632812 -13.820312 4.640625 -13.625 4.640625 -13.4375 L 4.640625 0 L 2.40625 0 L 2.40625 -18.859375 L 3.71875 -18.859375 C 3.832031 -18.859375 3.929688 -18.851562 4.015625 -18.84375 C 4.097656 -18.832031 4.164062 -18.8125 4.21875 -18.78125 C 4.28125 -18.75 4.34375 -18.703125 4.40625 -18.640625 C 4.46875 -18.585938 4.535156 -18.515625 4.609375 -18.421875 L 15.515625 -4.21875 C 15.503906 -4.445312 15.488281 -4.671875 15.46875 -4.890625 C 15.457031 -5.109375 15.453125 -5.3125 15.453125 -5.5 L 15.453125 -18.859375 Z M 17.6875 -18.859375 "/></g></g></g></g></g></svg>